<mxfile host="app.diagrams.net" agent="Mozilla/5.0 (Macintosh; Intel Mac OS X 10_15_7) AppleWebKit/537.36 (KHTML, like Gecko) Chrome/126.0.0.0 Safari/537.36" version="24.7.6">
  <diagram name="Page-1" id="qHu5MgX-kPWSWG0aRzg3">
    <mxGraphModel dx="794" dy="540" grid="1" gridSize="10" guides="1" tooltips="1" connect="1" arrows="1" fold="1" page="1" pageScale="1" pageWidth="850" pageHeight="1100" math="0" shadow="0">
      <root>
        <mxCell id="0" />
        <mxCell id="1" parent="0" />
        <object label="Client" Client="" id="f9ot66WbKrEA0bIDZkyh-1">
          <mxCell style="whiteSpace=wrap;html=1;aspect=fixed;labelBackgroundColor=none;fillColor=#F2CC8F;strokeColor=#E07A5F;fontColor=#393C56;" vertex="1" parent="1">
            <mxGeometry x="10" y="200" width="120" height="120" as="geometry" />
          </mxCell>
        </object>
        <mxCell id="f9ot66WbKrEA0bIDZkyh-2" value="" style="endArrow=classic;html=1;rounded=0;labelBackgroundColor=none;strokeColor=#E07A5F;fontColor=default;entryX=0;entryY=0.461;entryDx=0;entryDy=0;exitX=1.025;exitY=0.342;exitDx=0;exitDy=0;exitPerimeter=0;entryPerimeter=0;" edge="1" parent="1" source="f9ot66WbKrEA0bIDZkyh-1" target="f9ot66WbKrEA0bIDZkyh-3">
          <mxGeometry width="50" height="50" relative="1" as="geometry">
            <mxPoint x="130" y="260" as="sourcePoint" />
            <mxPoint x="190" y="254" as="targetPoint" />
          </mxGeometry>
        </mxCell>
        <mxCell id="f9ot66WbKrEA0bIDZkyh-25" value="" style="edgeStyle=orthogonalEdgeStyle;rounded=0;orthogonalLoop=1;jettySize=auto;html=1;strokeColor=#E07A5F;fontColor=#393C56;fillColor=#F2CC8F;exitX=0.025;exitY=0.507;exitDx=0;exitDy=0;exitPerimeter=0;" edge="1" parent="1" source="f9ot66WbKrEA0bIDZkyh-3" target="f9ot66WbKrEA0bIDZkyh-1">
          <mxGeometry relative="1" as="geometry" />
        </mxCell>
        <mxCell id="f9ot66WbKrEA0bIDZkyh-3" value="&lt;h1&gt;&lt;br&gt;&lt;/h1&gt;&lt;h1&gt;&lt;br&gt;&lt;/h1&gt;&lt;h1&gt;&lt;br&gt;&lt;/h1&gt;&lt;h1&gt;&lt;br&gt;&lt;/h1&gt;&lt;h1&gt;&lt;br&gt;&lt;/h1&gt;&lt;h1&gt;PhoneBook API Application&lt;/h1&gt;" style="whiteSpace=wrap;html=1;aspect=fixed;labelBackgroundColor=none;fillColor=#F2CC8F;strokeColor=#E07A5F;fontColor=#393C56;" vertex="1" parent="1">
          <mxGeometry x="200" y="54" width="406" height="406" as="geometry" />
        </mxCell>
        <mxCell id="f9ot66WbKrEA0bIDZkyh-8" value="" style="edgeStyle=orthogonalEdgeStyle;rounded=0;orthogonalLoop=1;jettySize=auto;html=1;strokeColor=#E07A5F;fontColor=#393C56;fillColor=#F2CC8F;exitX=1;exitY=0.25;exitDx=0;exitDy=0;entryX=0;entryY=0.25;entryDx=0;entryDy=0;" edge="1" parent="1" source="f9ot66WbKrEA0bIDZkyh-5" target="f9ot66WbKrEA0bIDZkyh-7">
          <mxGeometry relative="1" as="geometry" />
        </mxCell>
        <mxCell id="f9ot66WbKrEA0bIDZkyh-5" value="Controller" style="whiteSpace=wrap;html=1;aspect=fixed;strokeColor=#6c8ebf;fillColor=#dae8fc;" vertex="1" parent="1">
          <mxGeometry x="270" y="80" width="80" height="80" as="geometry" />
        </mxCell>
        <mxCell id="f9ot66WbKrEA0bIDZkyh-6" value="" style="endArrow=classic;html=1;rounded=0;strokeColor=#E07A5F;fontColor=#393C56;fillColor=#F2CC8F;exitX=0.002;exitY=0.101;exitDx=0;exitDy=0;exitPerimeter=0;entryX=0.038;entryY=0.175;entryDx=0;entryDy=0;entryPerimeter=0;" edge="1" parent="1" source="f9ot66WbKrEA0bIDZkyh-3" target="f9ot66WbKrEA0bIDZkyh-5">
          <mxGeometry width="50" height="50" relative="1" as="geometry">
            <mxPoint x="370" y="280" as="sourcePoint" />
            <mxPoint x="400" y="260" as="targetPoint" />
          </mxGeometry>
        </mxCell>
        <mxCell id="f9ot66WbKrEA0bIDZkyh-15" value="" style="edgeStyle=orthogonalEdgeStyle;rounded=0;orthogonalLoop=1;jettySize=auto;html=1;strokeColor=#E07A5F;fontColor=#393C56;fillColor=#F2CC8F;exitX=0.75;exitY=1;exitDx=0;exitDy=0;entryX=0.75;entryY=0;entryDx=0;entryDy=0;" edge="1" parent="1" source="f9ot66WbKrEA0bIDZkyh-7" target="f9ot66WbKrEA0bIDZkyh-14">
          <mxGeometry relative="1" as="geometry" />
        </mxCell>
        <mxCell id="f9ot66WbKrEA0bIDZkyh-23" value="" style="edgeStyle=orthogonalEdgeStyle;rounded=0;orthogonalLoop=1;jettySize=auto;html=1;strokeColor=#E07A5F;fontColor=#393C56;fillColor=#F2CC8F;" edge="1" parent="1" source="f9ot66WbKrEA0bIDZkyh-7" target="f9ot66WbKrEA0bIDZkyh-5">
          <mxGeometry relative="1" as="geometry" />
        </mxCell>
        <mxCell id="f9ot66WbKrEA0bIDZkyh-7" value="Service" style="whiteSpace=wrap;html=1;aspect=fixed;strokeColor=#6c8ebf;fillColor=#dae8fc;" vertex="1" parent="1">
          <mxGeometry x="430" y="80" width="80" height="80" as="geometry" />
        </mxCell>
        <mxCell id="f9ot66WbKrEA0bIDZkyh-11" value="MySQL - RDS on AWS" style="shape=cylinder3;whiteSpace=wrap;html=1;boundedLbl=1;backgroundOutline=1;size=15;strokeColor=#E07A5F;fontColor=#393C56;fillColor=#F2CC8F;" vertex="1" parent="1">
          <mxGeometry x="660" y="189.5" width="120" height="135" as="geometry" />
        </mxCell>
        <mxCell id="f9ot66WbKrEA0bIDZkyh-22" value="" style="edgeStyle=orthogonalEdgeStyle;rounded=0;orthogonalLoop=1;jettySize=auto;html=1;strokeColor=#E07A5F;fontColor=#393C56;fillColor=#F2CC8F;" edge="1" parent="1" source="f9ot66WbKrEA0bIDZkyh-14" target="f9ot66WbKrEA0bIDZkyh-7">
          <mxGeometry relative="1" as="geometry" />
        </mxCell>
        <mxCell id="f9ot66WbKrEA0bIDZkyh-14" value="Repository" style="whiteSpace=wrap;html=1;aspect=fixed;strokeColor=#6c8ebf;fillColor=#dae8fc;" vertex="1" parent="1">
          <mxGeometry x="430" y="217" width="80" height="80" as="geometry" />
        </mxCell>
        <mxCell id="f9ot66WbKrEA0bIDZkyh-18" value="" style="endArrow=classic;html=1;rounded=0;strokeColor=#E07A5F;fontColor=#393C56;fillColor=#F2CC8F;entryX=0.995;entryY=0.483;entryDx=0;entryDy=0;entryPerimeter=0;" edge="1" parent="1" target="f9ot66WbKrEA0bIDZkyh-3">
          <mxGeometry width="50" height="50" relative="1" as="geometry">
            <mxPoint x="510" y="250" as="sourcePoint" />
            <mxPoint x="560" y="200" as="targetPoint" />
          </mxGeometry>
        </mxCell>
        <mxCell id="f9ot66WbKrEA0bIDZkyh-19" value="" style="endArrow=classic;html=1;rounded=0;strokeColor=#E07A5F;fontColor=#393C56;fillColor=#F2CC8F;entryX=0;entryY=0;entryDx=0;entryDy=41.25;entryPerimeter=0;" edge="1" parent="1" target="f9ot66WbKrEA0bIDZkyh-11">
          <mxGeometry width="50" height="50" relative="1" as="geometry">
            <mxPoint x="606" y="230" as="sourcePoint" />
            <mxPoint x="656" y="180" as="targetPoint" />
          </mxGeometry>
        </mxCell>
        <mxCell id="f9ot66WbKrEA0bIDZkyh-20" value="" style="endArrow=classic;html=1;rounded=0;strokeColor=#E07A5F;fontColor=#393C56;fillColor=#F2CC8F;entryX=0.993;entryY=0.559;entryDx=0;entryDy=0;entryPerimeter=0;" edge="1" parent="1" target="f9ot66WbKrEA0bIDZkyh-3">
          <mxGeometry width="50" height="50" relative="1" as="geometry">
            <mxPoint x="660" y="280" as="sourcePoint" />
            <mxPoint x="710" y="230" as="targetPoint" />
          </mxGeometry>
        </mxCell>
        <mxCell id="f9ot66WbKrEA0bIDZkyh-21" value="" style="endArrow=classic;html=1;rounded=0;strokeColor=#E07A5F;fontColor=#393C56;fillColor=#F2CC8F;entryX=1.025;entryY=0.838;entryDx=0;entryDy=0;entryPerimeter=0;" edge="1" parent="1" target="f9ot66WbKrEA0bIDZkyh-14">
          <mxGeometry width="50" height="50" relative="1" as="geometry">
            <mxPoint x="600" y="282" as="sourcePoint" />
            <mxPoint x="650" y="232" as="targetPoint" />
          </mxGeometry>
        </mxCell>
        <mxCell id="f9ot66WbKrEA0bIDZkyh-24" value="" style="endArrow=classic;html=1;rounded=0;strokeColor=#E07A5F;fontColor=#393C56;fillColor=#F2CC8F;entryX=0.005;entryY=0.229;entryDx=0;entryDy=0;entryPerimeter=0;" edge="1" parent="1" target="f9ot66WbKrEA0bIDZkyh-3">
          <mxGeometry width="50" height="50" relative="1" as="geometry">
            <mxPoint x="270" y="145" as="sourcePoint" />
            <mxPoint x="320" y="95" as="targetPoint" />
          </mxGeometry>
        </mxCell>
        <mxCell id="f9ot66WbKrEA0bIDZkyh-26" value="Validator" style="ellipse;whiteSpace=wrap;html=1;strokeColor=#82b366;fillColor=#d5e8d4;" vertex="1" parent="1">
          <mxGeometry x="300" y="189.5" width="100" height="60" as="geometry" />
        </mxCell>
        <mxCell id="f9ot66WbKrEA0bIDZkyh-28" value="" style="endArrow=classic;html=1;rounded=0;strokeColor=#E07A5F;fontColor=#393C56;fillColor=#F2CC8F;entryX=1;entryY=0;entryDx=0;entryDy=0;" edge="1" parent="1" target="f9ot66WbKrEA0bIDZkyh-26">
          <mxGeometry width="50" height="50" relative="1" as="geometry">
            <mxPoint x="430" y="160" as="sourcePoint" />
            <mxPoint x="480" y="110" as="targetPoint" />
          </mxGeometry>
        </mxCell>
        <mxCell id="f9ot66WbKrEA0bIDZkyh-29" value="Redis Server" style="ellipse;whiteSpace=wrap;html=1;strokeColor=#E07A5F;fontColor=#393C56;fillColor=#F2CC8F;" vertex="1" parent="1">
          <mxGeometry x="650" y="10" width="120" height="80" as="geometry" />
        </mxCell>
        <mxCell id="f9ot66WbKrEA0bIDZkyh-30" value="" style="endArrow=classic;html=1;rounded=0;strokeColor=#E07A5F;fontColor=#393C56;fillColor=#F2CC8F;" edge="1" parent="1">
          <mxGeometry width="50" height="50" relative="1" as="geometry">
            <mxPoint x="606" y="104" as="sourcePoint" />
            <mxPoint x="656" y="54" as="targetPoint" />
          </mxGeometry>
        </mxCell>
        <mxCell id="f9ot66WbKrEA0bIDZkyh-31" value="" style="endArrow=classic;html=1;rounded=0;strokeColor=#E07A5F;fontColor=#393C56;fillColor=#F2CC8F;entryX=1;entryY=0.118;entryDx=0;entryDy=0;entryPerimeter=0;" edge="1" parent="1" target="f9ot66WbKrEA0bIDZkyh-3">
          <mxGeometry width="50" height="50" relative="1" as="geometry">
            <mxPoint x="510" y="110" as="sourcePoint" />
            <mxPoint x="560" y="60" as="targetPoint" />
          </mxGeometry>
        </mxCell>
        <mxCell id="f9ot66WbKrEA0bIDZkyh-32" value="" style="endArrow=classic;html=1;rounded=0;strokeColor=#E07A5F;fontColor=#393C56;fillColor=#F2CC8F;" edge="1" parent="1" target="f9ot66WbKrEA0bIDZkyh-3">
          <mxGeometry width="50" height="50" relative="1" as="geometry">
            <mxPoint x="670" y="80" as="sourcePoint" />
            <mxPoint x="720" y="30" as="targetPoint" />
          </mxGeometry>
        </mxCell>
        <mxCell id="f9ot66WbKrEA0bIDZkyh-33" value="" style="endArrow=classic;html=1;rounded=0;strokeColor=#E07A5F;fontColor=#393C56;fillColor=#F2CC8F;" edge="1" parent="1" target="f9ot66WbKrEA0bIDZkyh-7">
          <mxGeometry width="50" height="50" relative="1" as="geometry">
            <mxPoint x="606" y="120" as="sourcePoint" />
            <mxPoint x="656" y="70" as="targetPoint" />
          </mxGeometry>
        </mxCell>
      </root>
    </mxGraphModel>
  </diagram>
</mxfile>
